<?xml version="1.0" encoding="UTF-8"?>
<svg id="Layer_2" data-name="Layer 2" xmlns="http://www.w3.org/2000/svg" xmlns:xlink="http://www.w3.org/1999/xlink" viewBox="0 0 162.19 84.77">
  <defs>
    <style>
      .cls-1 {
        fill: #b7b7b7;
      }

      .cls-2, .cls-3 {
        fill: #fff;
      }

      .cls-3, .cls-4, .cls-5 {
        fill-rule: evenodd;
      }

      .cls-6 {
        clip-path: url(#clippath-2);
      }

      .cls-7 {
        clip-path: url(#clippath-1);
      }

      .cls-8 {
        clip-path: url(#clippath);
      }

      .cls-9 {
        clip-path: url(#clippath-3);
      }

      .cls-4 {
        fill: #ff9e1c;
      }
    </style>
    <clipPath id="clippath">
      <path class="cls-1" d="m53.92,0v49.66h-9.26V11.25c-1.04.95-2.51,1.84-4.42,2.66-1.9.82-3.88,1.35-5.94,1.59V7.3c4.87-1.46,9.46-3.89,13.78-7.3h5.84Z"/>
    </clipPath>
    <clipPath id="clippath-1">
      <path class="cls-1" d="m62.44,40.83c2.61,1.64,5.64,2.46,9.1,2.46,4.05,0,7.14-1.46,9.26-4.37,2.12-2.91,3.19-6.92,3.19-12.03l-.17-.07c-2.1,3.5-5.49,5.25-10.16,5.25-4.14,0-7.5-1.44-10.09-4.33-2.59-2.89-3.88-6.47-3.88-10.74,0-5.02,1.56-9.11,4.68-12.27,3.12-3.15,7.16-4.73,12.12-4.73,5.27,0,9.35,2,12.25,6.01s4.35,9.58,4.35,16.73c0,8.7-1.82,15.5-5.44,20.42-3.63,4.91-8.76,7.37-15.4,7.37-3.81,0-7.07-.61-9.79-1.83v-7.87Zm6.37-24.73c0,2.7.67,4.85,2.01,6.44,1.34,1.59,3.19,2.39,5.56,2.39,2.12,0,3.86-.75,5.21-2.26,1.35-1.5,2.02-3.33,2.02-5.48,0-2.72-.69-5.07-2.06-7.04-1.37-1.97-3.19-2.96-5.44-2.96s-4.01.88-5.33,2.62c-1.32,1.75-1.98,3.84-1.98,6.27Z"/>
    </clipPath>
    <clipPath id="clippath-2">
      <path class="cls-1" d="m104.88,41.86h20.71v7.8h-30.51v-3.68c0-2.63.45-5.06,1.34-7.29s2.18-4.3,3.85-6.24,5.18-4.91,10.54-8.91c2.08-1.55,3.57-3.03,4.48-4.45.91-1.42,1.36-3,1.36-4.75,0-2.17-.64-3.86-1.91-5.06-1.27-1.21-3.25-1.81-5.93-1.81-4.18,0-8.2,1.66-12.05,4.98V4.12c3.94-2.74,8.4-4.12,13.38-4.12s8.95,1.23,11.7,3.68c2.75,2.46,4.13,5.85,4.13,10.19,0,2.24-.36,4.22-1.08,5.94-.72,1.73-1.67,3.29-2.85,4.7-1.18,1.41-2.55,2.71-4.08,3.92s-3.12,2.41-4.73,3.6c-2.99,2.21-5.13,4.11-6.42,5.68-1.29,1.57-1.94,2.96-1.94,4.15Z"/>
    </clipPath>
    <clipPath id="clippath-3">
      <path class="cls-1" d="m156.35,30.46V13.49h-8.57v16.97h-13.2l13.19-16.97h-.12V.8h-1.18l-28.1,38.07h29.41v10.79h8.57v-10.79h5.84v-8.41h-5.84Z"/>
    </clipPath>
  </defs>
  <g id="Layer_2-2" data-name="Layer 2">
    <g>
      <g>
        <path class="cls-3" d="m137.45,63.93c-3.09,0-5.61-2.52-5.61-5.61.02-2.96,2.23-5.34,5.12-5.58.2-.02.34-.03.48-.03,2.69,0,5.01,1.91,5.51,4.55.06.31.09.64.1,1.03,0,.37-.04.78-.12,1.18-.42,2.17-2.17,3.92-4.35,4.35-.38.07-.76.11-1.14.11Z"/>
        <path d="m137.45,54.78c1.7,0,3.16,1.2,3.48,2.88.03.17.05.38.06.62,0,.26-.03.53-.08.77-.26,1.34-1.38,2.46-2.71,2.72-.25.05-.51.07-.75.07-1.95,0-3.54-1.59-3.54-3.54v-.03c.01-1.83,1.4-3.33,3.22-3.49h.06s.06-.01.06-.01c.02,0,.07,0,.2,0m0-4.14c-.22,0-.44,0-.66.03-3.91.33-6.99,3.59-7.02,7.58v.06c0,4.25,3.44,7.68,7.68,7.68.5,0,1.02-.05,1.54-.15,2.99-.59,5.4-3,5.99-5.99.1-.54.15-1.08.15-1.6,0-.47-.05-.94-.14-1.39-.68-3.55-3.8-6.23-7.55-6.23h0Z"/>
      </g>
      <g>
        <path class="cls-1" d="m53.92,0v49.66h-9.26V11.25c-1.04.95-2.51,1.84-4.42,2.66-1.9.82-3.88,1.35-5.94,1.59V7.3c4.87-1.46,9.46-3.89,13.78-7.3h5.84Z"/>
        <g class="cls-8">
          <polygon class="cls-1" points="202.93 73.89 202.93 -17.33 -44.58 -17.33 -30.48 73.89 202.93 73.89"/>
        </g>
      </g>
      <g>
        <path class="cls-1" d="m62.44,40.83c2.61,1.64,5.64,2.46,9.1,2.46,4.05,0,7.14-1.46,9.26-4.37,2.12-2.91,3.19-6.92,3.19-12.03l-.17-.07c-2.1,3.5-5.49,5.25-10.16,5.25-4.14,0-7.5-1.44-10.09-4.33-2.59-2.89-3.88-6.47-3.88-10.74,0-5.02,1.56-9.11,4.68-12.27,3.12-3.15,7.16-4.73,12.12-4.73,5.27,0,9.35,2,12.25,6.01s4.35,9.58,4.35,16.73c0,8.7-1.82,15.5-5.44,20.42-3.63,4.91-8.76,7.37-15.4,7.37-3.81,0-7.07-.61-9.79-1.83v-7.87Zm6.37-24.73c0,2.7.67,4.85,2.01,6.44,1.34,1.59,3.19,2.39,5.56,2.39,2.12,0,3.86-.75,5.21-2.26,1.35-1.5,2.02-3.33,2.02-5.48,0-2.72-.69-5.07-2.06-7.04-1.37-1.97-3.19-2.96-5.44-2.96s-4.01.88-5.33,2.62c-1.32,1.75-1.98,3.84-1.98,6.27Z"/>
        <g class="cls-7">
          <polygon class="cls-1" points="202.93 73.89 202.93 -17.33 -44.58 -17.33 -30.48 73.89 202.93 73.89"/>
        </g>
      </g>
      <g>
        <path class="cls-1" d="m104.88,41.86h20.71v7.8h-30.51v-3.68c0-2.63.45-5.06,1.34-7.29s2.18-4.3,3.85-6.24,5.18-4.91,10.54-8.91c2.08-1.55,3.57-3.03,4.48-4.45.91-1.42,1.36-3,1.36-4.75,0-2.17-.64-3.86-1.91-5.06-1.27-1.21-3.25-1.81-5.93-1.81-4.18,0-8.2,1.66-12.05,4.98V4.12c3.94-2.74,8.4-4.12,13.38-4.12s8.95,1.23,11.7,3.68c2.75,2.46,4.13,5.85,4.13,10.19,0,2.24-.36,4.22-1.08,5.94-.72,1.73-1.67,3.29-2.85,4.7-1.18,1.41-2.55,2.71-4.08,3.92s-3.12,2.41-4.73,3.6c-2.99,2.21-5.13,4.11-6.42,5.68-1.29,1.57-1.94,2.96-1.94,4.15Z"/>
        <g class="cls-6">
          <polygon class="cls-1" points="202.93 73.89 202.93 -17.33 -44.58 -17.33 -30.48 73.89 202.93 73.89"/>
        </g>
      </g>
      <g>
        <path class="cls-1" d="m156.35,30.46V13.49h-8.57v16.97h-13.2l13.19-16.97h-.12V.8h-1.18l-28.1,38.07h29.41v10.79h8.57v-10.79h5.84v-8.41h-5.84Z"/>
        <g class="cls-9">
          <polygon class="cls-1" points="202.93 73.89 202.93 -17.33 -44.58 -17.33 -30.48 73.89 202.93 73.89"/>
        </g>
      </g>
      <g>
        <rect x="4.54" y="78.08" width="1.04" height=".82"/>
        <polygon points="10.19 83.6 8.94 83.6 8.94 84.38 10.19 84.38 10.29 84.38 11.54 84.38 11.54 83.6 10.29 83.6 10.19 83.6"/>
        <polygon points="17.77 74.39 14.57 75.73 14.57 76.32 17.94 74.93 17.77 74.39"/>
        <rect x="21.86" y="77.19" width="1.04" height=".82"/>
        <path d="m30.84,80.74c0,.25-.07.44-.22.58-.15.13-.36.2-.63.2s-.48-.07-.63-.2c-.14-.13-.21-.33-.21-.58v-1.55h-.82v1.55c0,.24-.08.42-.24.57-.16.14-.38.21-.68.21s-.52-.07-.66-.2c-.14-.13-.22-.33-.22-.58v-1.55h-.83v1.55c0,.24-.08.42-.24.57-.16.14-.38.21-.68.21h-1.04c-.26,0-.45-.06-.59-.19-.13-.13-.2-.31-.2-.56v-1.58h-.82v1.6c0,.22-.08.4-.23.53s-.35.2-.61.2h-1.18c-.22,0-.41-.04-.58-.12-.17-.08-.4-.25-.7-.52-.3-.27-.76-.71-1.38-1.33l-1.95-1.96,2.88-1.13-.25-.79-3.6,1.43v.71l2.32,2.29c.14.14.24.28.31.41.07.13.1.26.1.39,0,.19-.08.34-.24.45-.16.11-.38.17-.67.17h-3c-.26,0-.45-.06-.59-.19-.13-.13-.2-.31-.2-.56v-1.58h-.82v1.6c0,.22-.08.4-.23.53-.15.13-.35.2-.61.2h-2.05c-.24,0-.43-.06-.57-.19-.13-.12-.2-.3-.2-.51v-1.63h-.82v2.91c0,.37-.08.69-.23.97-.15.28-.37.49-.65.64-.28.15-.61.22-.98.22h-.41c-.58,0-1.03-.16-1.33-.48-.3-.32-.45-.8-.45-1.42v-1.84h-.82v1.86c0,.87.22,1.54.67,2.01.45.48,1.08.71,1.91.71h.43c.51,0,.97-.11,1.37-.32.4-.22.72-.52.95-.91.23-.39.35-.83.35-1.34v-.12c.07.09.17.15.32.21.14.05.31.08.48.08h2.02c.29,0,.54-.05.75-.14.21-.1.37-.24.48-.44.1.2.25.34.44.44.2.1.44.14.74.14h3.03c.32,0,.6-.05.84-.15.24-.1.42-.24.56-.42.13-.18.2-.38.22-.6.35.35.64.6.85.77.21.16.41.27.6.32.18.05.42.08.7.08h1.18c.29,0,.54-.05.75-.14.21-.1.37-.24.48-.44.1.2.25.34.44.44.2.1.44.14.74.14h1.07c.31,0,.57-.05.79-.16.22-.1.38-.26.5-.45.1.2.26.35.47.45.22.1.5.16.86.16.3,0,.56-.05.78-.16.22-.1.39-.26.51-.45.1.2.25.35.46.45.21.1.48.16.82.16.51,0,.92-.15,1.22-.44.3-.29.45-.69.45-1.21v-1.53h-.82v1.55Z"/>
        <path d="m40.22,81.04h-1.18v-.97c0-.28.09-.52.27-.7.18-.19.41-.28.7-.28h1.34l-.07-.82h-1.25c-.55,0-.99.17-1.32.51-.33.34-.5.78-.5,1.32v1.79h1.87c.25,0,.43.05.55.15.12.1.18.26.18.47,0,.27-.08.51-.24.72-.16.21-.38.38-.66.5s-.61.18-.98.18h-.74c-.58,0-1.03-.16-1.33-.48-.3-.32-.45-.8-.45-1.42v-1.84h-.82v1.86c0,.87.22,1.54.67,2.01.45.48,1.08.71,1.91.71h.76c.49,0,.95-.1,1.36-.31.41-.21.74-.49.98-.84.24-.35.36-.74.36-1.15,0-.45-.12-.8-.35-1.05s-.59-.37-1.06-.37Z"/>
        <path d="m51.38,79.55l-2.04-2.18-.59.6,2,2.1c.16.17.28.32.34.45.06.13.09.25.09.38,0,.19-.08.34-.23.45-.15.11-.37.17-.65.17h-1.46c.26-.16.46-.37.61-.62.14-.25.21-.52.21-.8,0-.33-.08-.64-.24-.91-.16-.27-.38-.48-.66-.65s-.59-.24-.92-.24c-.36,0-.69.08-.98.25-.29.16-.52.39-.68.67-.17.28-.25.6-.25.96,0,.26.06.51.19.75.13.25.29.44.5.59h-1.76c-.25,0-.44-.08-.56-.23-.12-.15-.19-.38-.19-.68v-4.61h-.82v4.65c0,.55.13.98.39,1.28.26.3.64.45,1.14.45h1.53c.41,0,.73,0,.94-.03.21-.02.38-.06.5-.13.12.07.27.11.47.13.19.02.5.03.93.03h1.11c.35,0,.65-.06.91-.18.26-.12.45-.29.59-.51s.2-.48.2-.77c0-.23-.05-.46-.15-.68-.1-.22-.26-.45-.47-.68Zm-3.63,1.95c-.34-.16-.59-.35-.76-.57-.17-.22-.26-.47-.26-.75,0-.31.1-.57.3-.76.2-.19.46-.29.77-.29s.58.1.78.29c.2.19.3.44.3.76,0,.27-.1.52-.29.74-.19.23-.47.42-.83.58Z"/>
        <rect x="55.7" y="78.08" width="1.04" height=".82"/>
        <polygon points="61.36 83.6 60.11 83.6 60.11 84.38 61.36 84.38 61.46 84.38 62.71 84.38 62.71 83.6 61.46 83.6 61.36 83.6"/>
        <path d="m71.61,80.74c0,.25-.07.44-.22.58-.15.13-.36.2-.63.2s-.48-.07-.63-.2c-.14-.13-.21-.33-.21-.58v-1.55h-.82v1.55c0,.24-.08.42-.24.57-.16.14-.38.21-.68.21s-.52-.07-.66-.2c-.14-.13-.22-.33-.22-.58v-1.55h-.83v1.55c0,.24-.08.42-.24.57-.16.14-.38.21-.68.21h-1.04c-.26,0-.45-.06-.59-.19-.13-.13-.2-.31-.2-.56v-1.58h-.82v1.6c0,.22-.08.4-.23.53-.15.13-.35.2-.61.2h-2.05c-.24,0-.43-.06-.57-.19-.13-.12-.2-.3-.2-.51v-1.63h-.82v2.91c0,.37-.08.69-.23.97-.15.28-.37.49-.65.64-.28.15-.61.22-.98.22h-.41c-.58,0-1.03-.16-1.33-.48-.3-.32-.45-.8-.45-1.42v-1.84h-.82v1.86c0,.87.22,1.54.67,2.01.45.48,1.08.71,1.91.71h.43c.51,0,.97-.11,1.37-.32.4-.22.72-.52.95-.91.23-.39.35-.83.35-1.34v-.12c.07.09.17.15.32.21.14.05.31.08.48.08h2.02c.29,0,.54-.05.75-.14.21-.1.37-.24.48-.44.1.2.25.34.44.44.2.1.44.14.74.14h1.07c.31,0,.57-.05.79-.16.22-.1.38-.26.5-.45.1.2.26.35.47.45.22.1.5.16.86.16.3,0,.56-.05.78-.16.22-.1.39-.26.51-.45.1.2.25.35.46.45.21.1.48.16.82.16.51,0,.92-.15,1.22-.44.3-.29.45-.69.45-1.21v-1.53h-.82v1.55Z"/>
        <rect x="69.05" y="75.88" width=".9" height=".78"/>
        <polygon points="69.54 78.01 70.79 78.01 70.79 77.23 69.54 77.23 69.44 77.23 68.19 77.23 68.19 78.01 69.44 78.01 69.54 78.01"/>
        <path d="m78.7,78.45c-.58,0-1.04.18-1.38.54-.34.36-.5.86-.5,1.49v.4c0,.21-.06.37-.17.47-.11.1-.29.16-.53.16h-.44c-.25,0-.44-.08-.56-.23-.12-.15-.19-.38-.19-.68v-4.61h-.82v4.65c0,.55.13.98.39,1.28.26.3.64.45,1.14.45h.48c.3,0,.55-.05.73-.15.18-.1.33-.25.44-.46.12.2.29.35.52.45.23.1.51.16.86.16.58,0,1.03-.17,1.36-.5.33-.33.49-.81.49-1.42s-.16-1.13-.47-1.47-.77-.52-1.35-.52Zm.74,2.8c-.17.18-.43.27-.77.27s-.58-.09-.76-.28c-.18-.18-.27-.44-.27-.76,0-.4.08-.7.26-.9.17-.2.43-.3.78-.3s.61.1.78.29c.17.19.26.48.26.87,0,.36-.09.63-.26.81Z"/>
        <rect x="91.91" y="75.88" width=".9" height=".78"/>
        <polygon points="92.4 78.01 93.65 78.01 93.65 77.23 92.4 77.23 92.3 77.23 91.05 77.23 91.05 78.01 92.3 78.01 92.4 78.01"/>
        <path d="m94.45,80.74c0,.25-.07.44-.22.58-.15.13-.36.2-.64.2s-.47-.07-.62-.2c-.14-.13-.21-.33-.21-.58v-1.55h-.82v1.55c0,.24-.08.42-.24.57-.16.14-.39.21-.68.21s-.51-.07-.66-.2c-.15-.13-.22-.32-.22-.56v-1.57h-.82v2.91c0,.37-.08.69-.23.97-.15.28-.37.49-.65.64-.28.15-.61.22-.98.22h-.41c-.58,0-1.03-.16-1.33-.48-.3-.32-.45-.8-.45-1.42v-1.84h-.82v1.86c0,.87.22,1.54.67,2.01.45.48,1.08.71,1.91.71h.43c.51,0,.97-.11,1.37-.32.4-.22.72-.52.95-.91.23-.39.35-.83.35-1.34v-.12c.07.09.18.15.33.21.15.05.33.08.55.08.31,0,.57-.05.79-.16.22-.1.39-.26.51-.45.09.2.24.35.45.45.21.1.48.16.82.16.51,0,.92-.15,1.22-.44.3-.29.45-.69.45-1.21v-1.53h-.82v1.55Z"/>
        <path d="m98.75,78.55c-.36,0-.68.09-.97.27-.29.18-.51.42-.66.74-.16.31-.24.68-.24,1.08,0,.6.15,1.03.45,1.31.3.28.79.41,1.46.41h.99c0,.48-.17.86-.48,1.14-.31.28-.73.42-1.26.42h-1.3l.08.85h1.21c.52,0,.97-.11,1.35-.32.38-.22.68-.53.89-.94.21-.41.31-.9.31-1.45v-1.36c0-.66-.16-1.18-.49-1.56-.33-.38-.78-.58-1.35-.58Zm1.02,2.97h-.94c-.29,0-.52-.03-.68-.09-.16-.06-.28-.16-.35-.29-.07-.13-.11-.31-.11-.54,0-.36.09-.65.28-.88.18-.22.43-.33.73-.33.35,0,.61.11.8.34.18.23.28.57.28,1.02v.77Z"/>
        <rect x="107.05" y="76.21" width="1.04" height=".82"/>
        <path d="m107.63,78.06c-.35,0-.68.08-.96.25-.29.16-.52.39-.68.67-.16.29-.25.6-.25.95,0,.26.04.47.13.65s.23.34.43.48c.2.14.48.28.84.41-.07.01-.14.02-.24.03-.09,0-.18,0-.27,0h-1.87c-.27,0-.47-.07-.62-.2-.14-.13-.21-.32-.21-.56v-1.57h-.82v2.89c0,.58-.16,1.03-.47,1.35-.32.32-.75.49-1.31.49h-.34l.08.85h.28c.51,0,.95-.11,1.34-.32s.68-.52.9-.91c.22-.39.33-.86.34-1.39v-.12c.07.1.18.18.33.24.15.06.32.09.5.09h2.34c.79,0,1.4-.16,1.8-.47.41-.31.61-.77.61-1.38v-.33c0-.67-.17-1.19-.5-1.56-.33-.37-.8-.56-1.4-.56Zm1.08,2.4c0,.2-.03.37-.09.51-.06.14-.15.26-.26.36-.48-.16-.85-.3-1.1-.44-.26-.13-.44-.28-.54-.43-.11-.15-.16-.33-.16-.55,0-.18.05-.35.14-.51.1-.16.22-.28.38-.37.16-.09.34-.14.53-.14.37,0,.64.11.83.33.18.22.28.56.28,1.01v.24Z"/>
        <path d="m115.36,78.55c-.36,0-.68.09-.97.27-.29.18-.51.42-.66.74-.16.31-.24.68-.24,1.08,0,.6.15,1.03.45,1.31.3.28.79.41,1.46.41h.98c0,.48-.17.86-.48,1.14-.31.28-.73.42-1.26.42h-1.3l.08.85h1.21c.52,0,.97-.11,1.35-.32.38-.22.68-.53.89-.94.21-.41.32-.9.32-1.45v-1.36c0-.66-.16-1.18-.49-1.56-.33-.38-.78-.58-1.35-.58Zm1.02,2.97h-.94c-.29,0-.52-.03-.68-.09-.16-.06-.28-.16-.35-.29-.07-.13-.11-.31-.11-.54,0-.36.09-.65.28-.88.18-.22.43-.33.73-.33.35,0,.61.11.8.34.18.23.28.57.28,1.02v.77Z"/>
        <polygon points="127.27 83.6 126.02 83.6 126.02 84.38 127.27 84.38 127.37 84.38 128.62 84.38 128.62 83.6 127.37 83.6 127.27 83.6"/>
        <path d="m129.08,80.79c0,.24-.07.42-.22.54-.14.12-.33.19-.57.19h-2.58c-.23,0-.41-.06-.54-.19-.13-.12-.25-.34-.35-.64l-1.15-3.27-.76.34c.03.1.1.28.19.51.41,1.08.66,1.77.76,2.07.1.3.15.51.15.64,0,.15-.07.28-.21.38-.14.1-.33.15-.56.15h-2.38l.08.85h2.3c.31,0,.56-.05.76-.15.2-.1.36-.26.48-.47.11.21.27.37.47.47.2.1.45.15.74.15h2.61c.49,0,.88-.14,1.17-.42.3-.28.44-.66.44-1.15v-1.61h-.83v1.6Z"/>
        <path d="m138.17,78.5c-.25-.13-.58-.2-.98-.2h-2.33l-.11.86h2.31c.35,0,.63.07.81.21.19.14.33.38.43.74l-1.5.88c-.35.2-.68.34-1.01.42-.33.08-.74.11-1.24.11h-.82c-.27,0-.47-.07-.62-.2s-.21-.32-.21-.56v-1.57h-.82v2.89c0,.58-.16,1.03-.47,1.35-.31.32-.75.49-1.31.49h-.33l.08.85h.28c.51,0,.95-.11,1.34-.32.38-.21.68-.52.9-.91.22-.39.33-.86.34-1.39v-.12c.07.1.18.18.33.24.15.06.32.09.5.09h.79c.58,0,1.06-.05,1.44-.15.38-.1.79-.28,1.22-.55l2.07-1.28c-.12-.53-.27-.94-.44-1.24-.17-.3-.38-.51-.64-.64Z"/>
        <rect x="135.99" y="76.33" width="1.04" height=".82"/>
        <rect x="143.92" y="77.19" width="1.04" height=".82"/>
        <path d="m151.66,80.22c-.1-.22-.25-.44-.46-.65l-1.97-1.98,2.88-1.13-.25-.79-3.6,1.43v.71l2.32,2.29c.14.14.24.28.3.41.07.13.1.26.1.39,0,.19-.08.34-.24.45-.16.11-.38.17-.67.17h-4.33c-.27,0-.47-.07-.62-.2-.14-.13-.21-.32-.21-.56v-1.57h-.82v2.89c0,.58-.16,1.03-.47,1.35-.32.32-.75.49-1.31.49h-.34l.08.85h.28c.51,0,.95-.11,1.34-.32s.68-.52.9-.91c.22-.39.33-.86.34-1.39v-.12c.07.1.18.18.33.24.15.06.32.09.5.09h4.33c.55,0,.98-.13,1.28-.4.3-.27.45-.62.45-1.06,0-.24-.05-.47-.14-.69Z"/>
        <path d="m161.55,78.97c-.31-.34-.77-.52-1.35-.52s-1.04.18-1.38.54c-.33.36-.5.86-.5,1.49v.4c0,.21-.06.37-.17.47s-.29.16-.53.16h-1.7s0,0,0,0h-.13c-.27,0-.47-.07-.62-.2-.14-.13-.21-.32-.21-.56v-1.57h-.82v2.89c0,.58-.16,1.03-.47,1.35-.32.32-.75.49-1.31.49h-.75l.08.85h.69c.51,0,.95-.11,1.34-.32.38-.21.68-.52.9-.91.22-.39.33-.86.34-1.39v-.12c.07.1.18.18.33.24.15.06.32.09.5.09h.13s0,0,0,0h1.7c.3,0,.55-.05.73-.15.18-.1.33-.25.44-.46.12.2.29.35.52.45.23.1.51.16.86.16.58,0,1.03-.17,1.36-.5.33-.33.49-.81.49-1.42s-.16-1.13-.47-1.47Zm-.61,2.28c-.17.18-.43.27-.77.27s-.58-.09-.76-.28c-.18-.18-.27-.44-.27-.76,0-.4.09-.7.26-.9.17-.2.43-.3.78-.3s.61.1.78.29c.17.19.26.48.26.87,0,.36-.09.63-.26.81Z"/>
      </g>
      <path class="cls-4" d="m37.87,15.66h-15.03c-1.77,0-3.42.77-4.55,2.03,0,0,0,0,0,0h-6.06v7.12h2.01v-5.91h3.21c-.15.28-.28.58-.39.89l-2.87,8.41h-.25c-2.23.31-4.61.91-6.9,1.65-4.2,1.36-7.06,5.26-7.06,9.68v13.29h3.78c.03-5.74,4.52-10.43,10.18-10.79.23-.02.46-.03.71-.03,5.48,0,10.02,4.05,10.78,9.32.07.49.11.98.11,1.49h14.19V17.53c0-1.03-.84-1.87-1.87-1.87Zm-20.51,12.7l3.2-9.6h6.61v9.77h-6.44l-3.38-.18Z"/>
      <g>
        <path class="cls-3" d="m14.58,64.1c-3.09,0-5.61-2.52-5.61-5.61.02-2.96,2.23-5.34,5.12-5.58.2-.02.34-.03.48-.03,2.69,0,5.01,1.91,5.52,4.55.06.31.09.64.1,1.03,0,.37-.04.78-.12,1.18-.42,2.17-2.17,3.93-4.35,4.35-.38.07-.76.11-1.14.11Z"/>
        <path d="m14.57,54.95c1.7,0,3.16,1.2,3.48,2.88.03.17.05.38.06.62,0,.26-.03.53-.08.78-.26,1.34-1.38,2.46-2.71,2.72-.25.05-.51.07-.75.07-1.95,0-3.54-1.59-3.54-3.54v-.03c.01-1.83,1.4-3.33,3.22-3.49h.06s.06-.01.06-.01c.02,0,.07,0,.2,0m0-4.14c-.22,0-.44,0-.66.03-3.91.33-6.99,3.59-7.02,7.58v.06c0,4.25,3.44,7.68,7.68,7.68.5,0,1.02-.05,1.54-.15,2.99-.59,5.4-3,5.99-5.99.1-.54.15-1.08.15-1.6,0-.47-.05-.94-.14-1.39-.68-3.55-3.8-6.23-7.55-6.23h0Z"/>
      </g>
      <g>
        <path class="cls-5" d="m137.73,56.82s0,.04,0,.06c-.02.11-.11.2-.22.22-.18.03-.34-.1-.34-.27h0c0-.15.11-.27.26-.28,0,0,.02,0,.02,0,.14,0,.25.1.27.23,0,.02,0,.03,0,.05Z"/>
        <path class="cls-5" d="m137.73,59.82s0,.04,0,.06c-.02.11-.11.2-.22.22-.18.03-.34-.1-.34-.27h0c0-.15.11-.27.26-.28,0,0,.02,0,.02,0,.14,0,.25.1.27.23,0,.02,0,.03,0,.05Z"/>
        <path class="cls-5" d="m138.95,58.6s-.04,0-.06,0c-.11-.02-.2-.11-.22-.22-.03-.18.1-.34.27-.34h0c.15,0,.26.11.28.26,0,0,0,.02,0,.02,0,.14-.1.25-.23.27-.02,0-.03,0-.05,0Z"/>
        <path class="cls-5" d="m135.95,58.6s-.04,0-.06,0c-.11-.02-.2-.11-.22-.22-.03-.18.1-.34.27-.34h0c.15,0,.26.11.28.26,0,0,0,.02,0,.02,0,.14-.1.25-.23.27-.02,0-.03,0-.05,0Z"/>
      </g>
      <g>
        <path class="cls-5" d="m14.85,56.99s0,.04,0,.06c-.02.11-.11.2-.22.22-.18.03-.34-.1-.34-.27h0c0-.15.11-.27.26-.28,0,0,.02,0,.02,0,.14,0,.25.1.27.23,0,.02,0,.03,0,.05Z"/>
        <path class="cls-5" d="m14.85,59.99s0,.04,0,.06c-.02.11-.11.2-.22.22-.18.03-.34-.1-.34-.27h0c0-.15.11-.27.26-.28,0,0,.02,0,.02,0,.14,0,.25.1.27.23,0,.02,0,.03,0,.05Z"/>
        <path class="cls-5" d="m16.07,58.77s-.04,0-.06,0c-.11-.02-.2-.11-.22-.22-.03-.18.1-.34.27-.34h0c.15,0,.26.11.28.26,0,0,0,.02,0,.02,0,.14-.1.25-.23.27-.02,0-.03,0-.05,0Z"/>
        <path class="cls-5" d="m13.08,58.77s-.04,0-.06,0c-.11-.02-.2-.11-.22-.22-.03-.18.1-.34.27-.34h0c.15,0,.26.11.28.26,0,0,0,.02,0,.02,0,.14-.1.25-.23.27-.02,0-.03,0-.05,0Z"/>
      </g>
      <rect class="cls-1" x="156.35" y="13.45" width="1.59" height=".04"/>
      <g>
        <g>
          <path class="cls-2" d="m52.12,57.89v5.68h-1.55v-4.14l-1.16.46v-1.33l1.7-.66h1.01Z"/>
          <polygon points="52.12 57.89 51.12 57.89 49.41 58.55 49.41 59.88 50.57 59.42 50.57 63.56 52.12 63.56 52.12 57.89 52.12 57.89"/>
        </g>
        <g>
          <path class="cls-2" d="m57.49,63.56v-1.26c1.02,0,2.46,0,4.31,0,.12,0,.23-.04.31-.12.09-.08.13-.17.12-.28v-.57h-3.29c-.52,0-.97-.17-1.35-.51-.37-.34-.55-.75-.55-1.22s.18-.88.56-1.22c.37-.34.82-.51,1.34-.51h2.94c.53,0,.98.17,1.35.51.37.34.56.74.55,1.22v2.29c0,.44-.19.82-.56,1.16-.37.33-.82.5-1.36.5h-4.36Zm4.75-3.95c0-.14-.05-.25-.14-.34-.09-.09-.22-.13-.37-.12h-2.62c-.15,0-.28.04-.37.13-.09.08-.14.19-.14.34s.05.25.14.34c.09.09.22.13.37.13h3.14v-.47Z"/>
          <path d="m61.88,57.89h-2.94c-.52,0-.97.17-1.34.51-.37.34-.56.74-.56,1.22s.18.88.55,1.22c.37.34.82.51,1.35.51h3.29v.57c0,.11-.03.2-.12.28-.08.07-.19.11-.31.12-1.4,0-2.57,0-3.5,0-.29,0-.56,0-.81,0v1.26h4.36c.54,0,.99-.17,1.36-.5.38-.34.56-.72.56-1.16v-2.29c0-.48-.18-.88-.55-1.22-.37-.34-.82-.51-1.35-.51h0Zm-2.78,2.19c-.15,0-.27-.04-.37-.13-.09-.09-.14-.2-.14-.34s.05-.25.14-.34c.09-.09.22-.13.37-.13h2.62s.03,0,.04,0c.14,0,.25.04.33.13.09.08.14.19.14.34v.47h-3.14Z"/>
        </g>
        <g>
          <path class="cls-2" d="m74.71,57.89c.54,0,1,.17,1.38.52.38.34.57.76.57,1.26s-.19.91-.57,1.26c-.38.34-.84.51-1.38.51h-2.4c-.15,0-.28.05-.39.15-.1.09-.16.21-.16.35v.39h4.9v1.25h-6.45v-1.65c0-.49.2-.9.57-1.25.38-.35.83-.52,1.36-.51h2.42c.16,0,.28-.05.39-.15.11-.1.16-.21.16-.35s-.05-.26-.16-.35c-.1-.1-.23-.14-.39-.14h-2.27c-.13,0-.25.04-.34.13-.09.08-.14.18-.14.31,0,0,0,0,0,.01,0,0,0,0,0,.01h-1.55v-.02c0-.48.18-.88.55-1.21.36-.34.81-.51,1.33-.5h2.57Z"/>
          <path d="m72.1,57.89c-.5,0-.93.17-1.29.5-.36.33-.55.74-.55,1.21v.02h1.55s0,0,0-.01c0,0,0-.01,0-.01,0-.12.05-.23.14-.31.09-.09.21-.13.34-.13h2.27c.16,0,.29.05.39.14.11.09.16.21.16.35s-.05.26-.16.35c-.1.1-.23.15-.39.15h-2.42s-.02,0-.03,0c-.52,0-.96.17-1.33.51-.37.34-.56.76-.57,1.25v1.65h6.45v-1.25h-4.9v-.39c0-.14.06-.26.16-.35.11-.1.24-.15.39-.15h2.4c.54,0,1-.17,1.38-.51.38-.35.57-.77.57-1.26s-.19-.91-.57-1.26c-.38-.35-.84-.52-1.38-.52h-2.57s-.02,0-.04,0h0Z"/>
        </g>
        <g>
          <path class="cls-2" d="m86.48,57.89l-2.47,3.62h2.39v-1.84h1.55v1.84h.94v1.26h-.94v.8h-1.55v-.8h-4.5v-.97l2.69-3.91h1.89Z"/>
          <polygon points="86.48 57.89 84.59 57.89 81.9 61.8 81.9 62.77 86.4 62.77 86.4 63.56 87.95 63.56 87.95 62.77 88.89 62.77 88.89 61.5 87.95 61.5 87.95 59.66 86.4 59.66 86.4 61.5 84.01 61.5 86.48 57.89 86.48 57.89"/>
        </g>
        <g>
          <path class="cls-2" d="m94.94,62.31v1.25h-1.55v-1.25h1.55Z"/>
          <polygon points="94.94 62.31 93.39 62.31 93.39 63.56 94.94 63.56 94.94 62.31 94.94 62.31"/>
        </g>
        <g>
          <path class="cls-2" d="m101.81,58.61v4.96h-1.46v-4.96h1.46Z"/>
          <polygon points="101.81 58.61 100.35 58.61 100.35 63.56 101.81 63.56 101.81 58.61 101.81 58.61"/>
        </g>
        <g>
          <path class="cls-2" d="m112.53,58.61c.49,0,.91.16,1.25.47.34.31.52.68.52,1.14,0,.38-.14.72-.41,1.02-.27.29-.62.47-1.03.54l1.59,1.79h-1.72l-1.45-1.75h-2.09v1.75h-1.46v-4.96h4.82Zm-3.35,2.01h3.22c.14,0,.25-.04.32-.11.08-.07.12-.17.12-.29s-.04-.22-.12-.29c-.07-.07-.18-.11-.32-.11h-3.22v.81Z"/>
          <path d="m112.53,58.61h-4.82v4.96h1.46v-1.75h2.09l1.45,1.75h1.72l-1.59-1.79c.41-.08.75-.26,1.03-.54.27-.3.41-.64.41-1.02,0-.45-.17-.83-.52-1.14-.34-.31-.76-.47-1.25-.47h0Zm-3.35,2.01v-.81h3.22s.01,0,.02,0c.13,0,.23.04.31.11.08.08.12.17.12.29s-.04.22-.12.29c-.07.07-.18.11-.32.11h-3.22Z"/>
        </g>
      </g>
    </g>
  </g>
</svg>